<?xml version="1.0" encoding="UTF-8" standalone="no"?>
<svg width="800" height="400" xmlns="http://www.w3.org/2000/svg">
  <style>
    text {
      font-family: Arial, sans-serif;
      font-size: 12px;
    }
    .title {
      font-size: 16px;
      font-weight: bold;
    }
    .subtitle {
      font-size: 14px;
      font-weight: bold;
    }
    .arrow {
      stroke: #333;
      stroke-width: 1.5;
      marker-end: url(#arrowhead);
    }
    .timeline {
      stroke: #333;
      stroke-width: 2;
    }
    .marker {
      stroke: #333;
      stroke-width: 1;
    }
    .segment {
      stroke-width: 0;
    }
    .segment-line {
      stroke-width: 2;
    }
    .segment-text {
      font-size: 11px;
    }
    .segment-connector {
      stroke-dasharray: 3,3;
      stroke: #555;
      stroke-width: 1;
    }
  </style>
  
  <defs>
    <marker id="arrowhead" markerWidth="10" markerHeight="7" refX="9" refY="3.5" orient="auto">
      <polygon points="0 0, 10 3.5, 0 7" fill="#333" />
    </marker>
  </defs>
  
  <!-- Title -->
  <text x="400" y="30" text-anchor="middle" class="title">Navigation Timing Performance Timeline</text>
  
  <!-- Main Timeline -->
  <line x1="50" y1="100" x2="750" y2="100" class="timeline" />
  <line x1="50" y1="100" x2="50" y2="95" class="marker" />
  <line x1="750" y1="100" x2="750" y2="95" class="marker" />
  
  <!-- Timeline labels -->
  <text x="50" y="115" text-anchor="middle">startTime</text>
  <text x="750" y="115" text-anchor="middle">loadEventEnd</text>
  
  <!-- Timing Segments -->
  
  <!-- Unload -->
  <rect x="80" y="70" width="50" height="30" fill="#ffcccc" class="segment" />
  <line x1="80" y1="100" x2="130" y2="100" stroke="#f88" class="segment-line" />
  <text x="105" y="85" text-anchor="middle" class="segment-text">Unload</text>
  <line x1="80" y1="100" x2="80" y2="95" class="marker" />
  <line x1="130" y1="100" x2="130" y2="95" class="marker" />
  <text x="80" y="125" text-anchor="middle" font-size="10">unloadEventStart</text>
  <text x="130" y="125" text-anchor="middle" font-size="10">unloadEventEnd</text>
  
  <!-- Redirect -->
  <rect x="140" y="70" width="40" height="30" fill="#ffddcc" class="segment" />
  <line x1="140" y1="100" x2="180" y2="100" stroke="#f96" class="segment-line" />
  <text x="160" y="85" text-anchor="middle" class="segment-text">Redirect</text>
  <line x1="140" y1="100" x2="140" y2="95" class="marker" />
  <line x1="180" y1="100" x2="180" y2="95" class="marker" />
  <text x="140" y="125" text-anchor="middle" font-size="10">redirectStart</text>
  <text x="180" y="125" text-anchor="middle" font-size="10">redirectEnd</text>
  
  <!-- AppCache -->
  <rect x="190" y="70" width="30" height="30" fill="#ffffcc" class="segment" />
  <line x1="190" y1="100" x2="220" y2="100" stroke="#cc6" class="segment-line" />
  <text x="205" y="85" text-anchor="middle" class="segment-text">Cache</text>
  <line x1="190" y1="100" x2="190" y2="95" class="marker" />
  <line x1="220" y1="100" x2="220" y2="95" class="marker" />
  <text x="190" y="125" text-anchor="middle" font-size="10">fetchStart</text>
  <text x="220" y="125" text-anchor="middle" font-size="10">domainLookupStart</text>
  
  <!-- DNS -->
  <rect x="220" y="70" width="30" height="30" fill="#ccffcc" class="segment" />
  <line x1="220" y1="100" x2="250" y2="100" stroke="#6c6" class="segment-line" />
  <text x="235" y="85" text-anchor="middle" class="segment-text">DNS</text>
  <line x1="250" y1="100" x2="250" y2="95" class="marker" />
  <text x="250" y="125" text-anchor="middle" font-size="10">domainLookupEnd</text>
  
  <!-- TCP -->
  <rect x="250" y="70" width="50" height="30" fill="#ccffff" class="segment" />
  <line x1="250" y1="100" x2="300" y2="100" stroke="#6cc" class="segment-line" />
  <text x="275" y="85" text-anchor="middle" class="segment-text">TCP</text>
  <line x1="300" y1="100" x2="300" y2="95" class="marker" />
  <text x="300" y="125" text-anchor="middle" font-size="10">connectEnd</text>
  
  <!-- Request -->
  <rect x="300" y="70" width="70" height="30" fill="#ccccff" class="segment" />
  <line x1="300" y1="100" x2="370" y2="100" stroke="#66c" class="segment-line" />
  <text x="335" y="85" text-anchor="middle" class="segment-text">Request</text>
  <line x1="300" y1="100" x2="300" y2="95" class="marker" />
  <line x1="370" y1="100" x2="370" y2="95" class="marker" />
  <text x="300" y="125" text-anchor="middle" font-size="10">requestStart</text>
  <text x="370" y="125" text-anchor="middle" font-size="10">responseStart</text>
  
  <!-- Response -->
  <rect x="370" y="70" width="60" height="30" fill="#ffccff" class="segment" />
  <line x1="370" y1="100" x2="430" y2="100" stroke="#c6c" class="segment-line" />
  <text x="400" y="85" text-anchor="middle" class="segment-text">Response</text>
  <line x1="430" y1="100" x2="430" y2="95" class="marker" />
  <text x="430" y="125" text-anchor="middle" font-size="10">responseEnd</text>
  
  <!-- Processing -->
  <rect x="430" y="70" width="120" height="30" fill="#ccddff" class="segment" />
  <line x1="430" y1="100" x2="550" y2="100" stroke="#99c" class="segment-line" />
  <text x="490" y="85" text-anchor="middle" class="segment-text">DOM Processing</text>
  <line x1="480" y1="100" x2="480" y2="95" class="marker" />
  <line x1="550" y1="100" x2="550" y2="95" class="marker" />
  <text x="480" y="125" text-anchor="middle" font-size="10">domInteractive</text>
  <text x="550" y="125" text-anchor="middle" font-size="10">domComplete</text>
  
  <!-- Load Event -->
  <rect x="550" y="70" width="180" height="30" fill="#ffeedd" class="segment" />
  <line x1="550" y1="100" x2="730" y2="100" stroke="#c96" class="segment-line" />
  <text x="640" y="85" text-anchor="middle" class="segment-text">Load Event</text>
  <line x1="550" y1="100" x2="550" y2="95" class="marker" />
  <line x1="730" y1="100" x2="730" y2="95" class="marker" />
  <text x="550" y="125" text-anchor="middle" font-size="10">loadEventStart</text>
  <text x="730" y="125" text-anchor="middle" font-size="10">loadEventEnd</text>
  
  <!-- DOMContentLoaded Event -->
  <line x1="500" y1="140" x2="500" y2="150" stroke="#333" class="marker" />
  <line x1="525" y1="140" x2="525" y2="150" stroke="#333" class="marker" />
  <line x1="500" y1="145" x2="525" y2="145" stroke="#333" class="segment-line" />
  <text x="510" y="160" text-anchor="middle" font-size="10">domContentLoaded</text>
  
  <!-- Combined Metrics -->
  
  <!-- TTFB -->
  <line x1="300" y1="180" x2="370" y2="180" stroke="#66c" stroke-width="4" />
  <text x="335" y="195" text-anchor="middle">TTFB</text>
  <line x1="300" y1="180" x2="300" y2="100" stroke-dasharray="3,3" class="segment-connector" />
  <line x1="370" y1="180" x2="370" y2="100" stroke-dasharray="3,3" class="segment-connector" />
  
  <!-- Resource Fetch Time -->
  <line x1="190" y1="220" x2="370" y2="220" stroke="#6c6" stroke-width="4" />
  <text x="280" y="235" text-anchor="middle">Resource Fetch Time</text>
  <line x1="190" y1="220" x2="190" y2="100" stroke-dasharray="3,3" class="segment-connector" />
  <line x1="370" y1="220" x2="370" y2="100" stroke-dasharray="3,3" class="segment-connector" />
  
  <!-- DOM Content Loaded -->
  <line x1="50" y1="260" x2="525" y2="260" stroke="#99c" stroke-width="4" />
  <text x="287" y="275" text-anchor="middle">DOM Content Loaded Time</text>
  <line x1="50" y1="260" x2="50" y2="100" stroke-dasharray="3,3" class="segment-connector" />
  <line x1="525" y1="260" x2="525" y2="145" stroke-dasharray="3,3" class="segment-connector" />
  
  <!-- Total Load Time -->
  <line x1="50" y1="300" x2="730" y2="300" stroke="#c96" stroke-width="4" />
  <text x="390" y="315" text-anchor="middle">Total Load Time</text>
  <line x1="50" y1="300" x2="50" y2="100" stroke-dasharray="3,3" class="segment-connector" />
  <line x1="730" y1="300" x2="730" y2="100" stroke-dasharray="3,3" class="segment-connector" />
  
  <!-- Front End Time -->
  <line x1="430" y1="340" x2="730" y2="340" stroke="#f88" stroke-width="4" />
  <text x="580" y="355" text-anchor="middle">Front End Time</text>
  <line x1="430" y1="340" x2="430" y2="100" stroke-dasharray="3,3" class="segment-connector" />
  <line x1="730" y1="340" x2="730" y2="100" stroke-dasharray="3,3" class="segment-connector" />
</svg> 